<svg width="200" height="155" viewBox="0 0 200 155" fill="none" xmlns="http://www.w3.org/2000/svg">
<path d="M189 76.9993C189 78.6833 189 80.2283 189 81.3755C189 82.4801 188.105 83.3743 187 83.3743H132.454H67.546H13C11.8954 83.3743 11 82.4801 11 81.3755C11 80.2283 11 78.6833 11 76.9993C11 75.3152 11.0001 73.77 11.0002 72.6228C11.0003 71.5183 11.8956 70.6243 13.0001 70.6243H67.546C83.6902 70.6243 132.454 70.6243 132.454 70.6243H187C188.105 70.6243 189 71.5185 189 72.623C189 73.7702 189 75.3153 189 76.9993Z" fill="url(#paint0_linear_87_126)"/>
<circle cx="128.429" cy="77" r="32" fill="url(#paint1_linear_87_126)"/>
<defs>
<linearGradient id="paint0_linear_87_126" x1="188.632" y1="71.1228" x2="-5.98054" y2="82.8779" gradientUnits="userSpaceOnUse">
<stop stop-color="#FE7844"/>
<stop offset="1" stop-color="#F8BB9D"/>
</linearGradient>
<linearGradient id="paint1_linear_87_126" x1="128.429" y1="45" x2="128.429" y2="109" gradientUnits="userSpaceOnUse">
<stop stop-color="#FF6F37"/>
<stop offset="1" stop-color="#F8BFA1"/>
</linearGradient>
</defs>
</svg>
