<svg width="150" height="100" viewBox="0 0 150 100" fill="none" xmlns="http://www.w3.org/2000/svg">
<path d="M134.593 92.5509C135.336 92.7505 136.017 92.0707 135.818 91.3271L129.791 68.7603C129.592 68.0157 128.661 67.7665 128.117 68.3122L123.751 72.6895C123.36 73.0813 122.726 73.0812 122.335 72.6894L80.6345 30.8731C80.2438 30.4813 79.6091 30.4812 79.2184 30.873L59.2197 50.924C58.829 51.3158 58.1944 51.3158 57.8036 50.924L14.0014 7.00023C14.0012 7.00008 14.001 7 14.0008 7C14.0004 7 14 7.00036 14 7.0008L14.0011 19.2746C14.0011 19.5393 14.1061 19.7932 14.2931 19.9807L57.8036 63.6052C58.1944 63.9969 58.829 63.9969 59.2197 63.6052L79.2184 43.5541C79.6091 43.1623 80.2438 43.1624 80.6345 43.5542L116.018 79.0372C116.408 79.4276 116.408 80.0592 116.018 80.4495L111.643 84.8363C111.1 85.3807 111.349 86.3088 112.092 86.5082L134.593 92.5509Z" fill="url(#paint0_linear_87_457)"/>
<defs>
<linearGradient id="paint0_linear_87_457" x1="130.162" y1="93.322" x2="4.93667" y2="16.1991" gradientUnits="userSpaceOnUse">
<stop stop-color="#FE6E36"/>
<stop offset="1" stop-color="#FE6E36" stop-opacity="0"/>
</linearGradient>
</defs>
</svg>
