<svg width="150" height="100" viewBox="0 0 150 100" fill="none" xmlns="http://www.w3.org/2000/svg">
<path fill-rule="evenodd" clip-rule="evenodd" d="M56.8426 80.4506C56.8463 80.4542 56.8525 80.4514 56.8523 80.4463L53.0253 1.9513C52.9993 1.41858 52.5599 1 52.0265 1H50.4141C49.8808 1 49.4413 1.41858 49.4153 1.9513L45.6124 79.9546C45.5968 80.2728 45.4287 80.5621 45.1717 80.7504C42.6517 82.5965 41 85.5421 41 88.8969C41 94.5041 45.5877 99 51.1948 99C56.159 99 60.3177 95.4583 61.2201 90.7542C61.2314 90.695 61.2367 90.6347 61.2367 90.5745V87.1517C61.2367 87.1029 61.2324 87.0541 61.2232 87.0062C60.7023 84.2781 59.0986 81.9455 56.8497 80.442C56.844 80.4382 56.8378 80.4458 56.8426 80.4506Z" fill="url(#paint0_linear_87_401)"/>
<path d="M131.518 90.5515H52.3164C51.7641 90.5515 51.3164 90.1038 51.3164 89.5515V87.9649C51.3164 87.4127 51.7641 86.9649 52.3164 86.9649H131.518C132.071 86.9649 132.518 87.4127 132.518 87.9649V89.5515C132.518 90.1038 132.071 90.5515 131.518 90.5515Z" fill="url(#paint1_linear_87_401)"/>
<defs>
<linearGradient id="paint0_linear_87_401" x1="51.3158" y1="112.754" x2="51.3158" y2="-37.6842" gradientUnits="userSpaceOnUse">
<stop stop-color="#FE6E36"/>
<stop offset="1" stop-color="#F1EDEB"/>
</linearGradient>
<linearGradient id="paint1_linear_87_401" x1="56.4743" y1="90.4036" x2="134.702" y2="90.4036" gradientUnits="userSpaceOnUse">
<stop stop-color="#FC8253"/>
<stop offset="1" stop-color="#F3D6CA"/>
</linearGradient>
</defs>
</svg>
